
<svg xmlns="http://www.w3.org/2000/svg" version="1.1" xmlns:xlink="http://www.w3.org/1999/xlink" preserveAspectRatio="none" x="0px" y="0px" width="357px" height="241px" viewBox="0 0 357 241">
<defs>
<path id="Layer1_0_1_STROKES" stroke="#4889f0" stroke-width="11.05" stroke-linejoin="round" stroke-linecap="round" fill="none" d="
M 135.2 150.6
L 175.5 110.3 215.8 150.6
M 175.5 110.3
L 175.5 232.55"/>

<path id="Layer0_0_1_STROKES" stroke="#4889f0" stroke-width="11.05" stroke-linejoin="round" stroke-linecap="round" fill="none" d="
M 148.8 188.25
L 50.65 188.25
Q 34.15 187.85 22.4 177.7 10.65 167.55 10.15 153.35 10.85 119.45 43.45 111.5 28.6 67.3 89.4 57.6 90.55 54.85 92.1 52 98.6 40.25 112.5 27.3 129.75 11.3 167.65 9 205.5 6.75 239.7 22.6 261.95 32.95 270.35 52 272.6 57.1 273.85 62.8 303.7 62.85 324.9 81.15 346.2 99.55 346.2 125.55 346.2 151.5 324.9 169.9 304.25 187.7 275.4 188.25
M 272.8 188.25
L 272.05 188.25
Q 271.6 188.25 271.15 188.25
L 201.6 188.25"/>
</defs>

<g transform="matrix( 1, 0, 0, 1, 0,0) ">
<use xlink:href="#Layer1_0_1_STROKES"/>
</g>

<g transform="matrix( 1, 0, 0, 1, 0,0) ">
<use xlink:href="#Layer0_0_1_STROKES"/>
</g>
</svg>
