<svg viewBox="5 0 27 24" xmlns="http://www.w3.org/2000/svg">
	<path stroke="none" stroke-linejoin="round" stroke-linecap="round" fill="black" d="
	M 16 20.6
	Q 12.9 20.3 10.55 17.95 7.9 15.3 7.9 11.55 7.9 7.75 10.55 5.1 13.2 2.45 16.85 2.4 16.9 2.4 17 2.4 20.8 2.4 23.45 5.1 25.55 7.2 26 10 26 10.15 26.05 10.3
	L 29.55 10.3 24.7 16.55 20.1 10.3 23.1 10.3
	Q 22.55 8.45 21.3 7.2 19.55 5.4 17 5.4 16.9 5.4 16.85 5.4 14.45 5.45 12.7 7.2 10.9 9 10.9 11.5 10.9 14.05 12.7 15.85 14.45 17.55 16.85 17.6 16.9 17.6 17 17.6 18.9 17.6 20.35 16.65
	L 21.7 19.4
	Q 21.5 19.5 21.25 19.65 19.35 20.65 17 20.65 16.95 20.65 16.85 20.65 16.45 20.65 16 20.6
	L 16 32.2"/>
</svg>