<svg version="1.1" xmlns="http://www.w3.org/2000/svg" viewBox="0 0 100 100">
<g>
	<path fill="black" d="M77,15H63v-3c0-3.033-2.468-5-5.5-5h-14C40.467,7,38,8.967,38,12v3H23c-1.657,0-3,1.343-3,3v4
		c0,1.657,1.343,3,3,3h54c1.657,0,3-1.343,3-3v-4C80,16.343,78.657,15,77,15z M43,15v-3c0-0.276,0.224,0,0.5,0h14
		c0.275,0,0.5-0.276,0.5,0v3H43z"/>
	<path fill="black" d="M75,30c0-1.657-1.343-3-3-3H28c-1.657,0-3,1.343-3,3v60c0,1.657,1.343,3,3,3h44c1.657,0,3-1.343,3-3V30z
		 M41,79c0,1.381-1.119,2.5-2.5,2.5S36,80.381,36,79V40c0-1.381,1.119-2.5,2.5-2.5S41,38.619,41,40V79z M52,79
		c0,1.381-1.119,2.5-2.5,2.5S47,80.381,47,79V40c0-1.381,1.119-2.5,2.5-2.5S52,38.619,52,40V79z M63,79c0,1.381-1.119,2.5-2.5,2.5
		S58,80.381,58,79V40c0-1.381,1.119-2.5,2.5-2.5S63,38.619,63,40V79z"/>
</g>
</svg>